<svg width="16" height="16" viewBox="0 0 16 16" fill="none" xmlns="http://www.w3.org/2000/svg">
<path d="M0.15625 8.00047C0.893203 6.55488 2.01549 5.34119 3.39907 4.49354C4.78265 3.64588 6.37365 3.19727 7.99625 3.19727C9.61885 3.19727 11.2099 3.64588 12.5934 4.49354C13.977 5.34119 15.0993 6.55488 15.8362 8.00047C15.0993 9.44605 13.977 10.6597 12.5934 11.5074C11.2099 12.3551 9.61885 12.8037 7.99625 12.8037C6.37365 12.8037 4.78265 12.3551 3.39907 11.5074C2.01549 10.6597 0.893203 9.44605 0.15625 8.00047ZM7.99625 11.2005C8.84494 11.2005 9.65888 10.8633 10.259 10.2632C10.8591 9.66309 11.1962 8.84916 11.1962 8.00047C11.1962 7.15177 10.8591 6.33784 10.259 5.73773C9.65888 5.13761 8.84494 4.80047 7.99625 4.80047C7.14756 4.80047 6.33362 5.13761 5.73351 5.73773C5.13339 6.33784 4.79625 7.15177 4.79625 8.00047C4.79625 8.84916 5.13339 9.66309 5.73351 10.2632C6.33362 10.8633 7.14756 11.2005 7.99625 11.2005ZM7.99625 9.60047C7.5719 9.60047 7.16494 9.4319 6.86488 9.13184C6.56482 8.83178 6.39625 8.42481 6.39625 8.00047C6.39625 7.57612 6.56482 7.16915 6.86488 6.8691C7.16494 6.56904 7.5719 6.40047 7.99625 6.40047C8.4206 6.40047 8.82756 6.56904 9.12762 6.8691C9.42768 7.16915 9.59625 7.57612 9.59625 8.00047C9.59625 8.42481 9.42768 8.83178 9.12762 9.13184C8.82756 9.4319 8.4206 9.60047 7.99625 9.60047Z" fill="#686868"/>
</svg>
