<svg width="16" height="16" viewBox="0 0 16 16" fill="none" xmlns="http://www.w3.org/2000/svg">
<path d="M10.2443 3.48739L8.82825 4.91139C8.28554 4.76576 7.71404 4.76561 7.17125 4.91094C6.62846 5.05628 6.1335 5.34198 5.73617 5.73931C5.33884 6.13665 5.05314 6.6316 4.9078 7.17439C4.76247 7.71718 4.76262 8.28868 4.90825 8.83139L2.70025 11.0314C1.64425 10.2314 0.76425 9.19139 0.15625 7.99939C1.06899 6.20966 2.56664 4.78612 4.40035 3.96532C6.23406 3.14451 8.29343 2.97586 10.2363 3.48739H10.2443ZM13.2843 4.96739C14.3483 5.76739 15.2282 6.80739 15.8442 7.99939C14.9309 9.79242 13.4306 11.2183 11.5935 12.0393C9.75637 12.8603 7.69333 13.027 5.74825 12.5114L7.16425 11.0874C7.70696 11.233 8.27846 11.2332 8.82125 11.0878C9.36404 10.9425 9.859 10.6568 10.2563 10.2595C10.6537 9.86214 10.9394 9.36718 11.0847 8.82439C11.23 8.2816 11.2299 7.7101 11.0843 7.16739L13.2923 4.96739H13.2843ZM13.0843 1.77539L14.2203 2.91139L2.90825 14.2234L1.77225 13.0874L13.0843 1.77539Z" fill="#686868"/>
</svg>
